
<!-- gift box
<svg width="200" height="200" viewBox="-100 -100 200 200">
 <style>
  .box {
  fill: #d1495b;
  stroke: black;
  stroke-width: 2px;
}

.stripe {
  fill: white;
  stroke: black;
  stroke-width: 2px;
}

.ribbon {
  stroke: #b73a3b;
  stroke-width: 4px;
  fill: none;
}
 </style>
  <circle cx="0" cy="-50" r="10" fill="#a9172a" />
  <rect class="box" x="-60" y="-40" width="120" height="100" />

  <rect class="box" x="-70" y="-47" width="140" height="20" />
  <rect class="stripe" x="-20" y="-40" width="40" height="100" />
  <rect class="stripe" x="-25" y="-47" width="50" height="20" />

  <path
    class="ribbon"
    d="
      M 0 -50
      L 30 -50
      C 50 -50 50 -70 30 -65
      L 0 -50"
  />

  <path
    class="ribbon"
    d="
      M 0 -50
      L -30 -50
      C -50 -50 -50 -70 -30 -65
      L 0 -50"
  />
</svg>
-->

<!--
<svg
  width="200"
  height="200"
  viewBox="-100 -100 200 200"
>
  <circle
    cx="0"
    cy="0"
    r="90"
    fill="none"
    stroke="black"
    stroke-width="10" />
  <ellipse
    cx="-25"
    cy="-25"
    rx="10"
    ry="15" />
  <ellipse
    cx="25"
    cy="-25"
    rx="10"
    ry="15" />
  <path
    d="M -40,30 Q 0,60 40,30"
    fill="none"
    stroke="black"
    stroke-width="10"
    stroke-linecap="round" />
</svg>
-->

<!-- arrow
<svg width="200" height="200" viewBox="-100 -100 200 200">
  <path
    d="M -70 0 L 70 0 L 30 -50 M 70 0 L 30 50"
    fill="none"
    stroke="#D1495B"
    stroke-width="25"
    stroke-linecap="round"
    stroke-linejoin="round"
  />
</svg>
-->

<!-- house
<svg width="200" height="200" viewBox="-100 -100 200 200">
 <style>
  .wall {
  stroke: black;
  stroke-width: 2px;
  fill: white;
  }
  .roof {
  stroke: #d1495b;
  stroke-width: 10px;
  fill: none;
  stroke-linecap: round;
  }
  .door {
  fill: #d1495b;
  }
  .stair {
  fill: gray;
  }
  .window {
  fill: #fdea96;
  }
  .window-sill {
   fill: #d1495b;
   stroke-linecap: round;
  }
 </style>
 <polygon class="wall" points="-65,80 -65,-10 0,-70 65,-10 65,80"/>
 <polyline class="roof" points="-75,-8 0,-78 75,-8"/>

   <rect class="wall door" x="-45" y="10" width="30" height="60" rx="2" />
  <circle class="wall door-knob" cx="-35" cy="40" r="2" />
  <rect class="wall stair" x="-47" y="70" width="34" height="5" />
  <rect class="wall stair" x="-49" y="75" width="38" height="5" />

  <rect class="wall window" x="5" y="15" width="40" height="35" rx="5" />
  <line class="wall" x1="5" y1="32.5" x2="45" y2="32.5" />
  <line class="wall" x1="25" y1="15" x2="25" y2="50" />
  <rect class="wall window-sill" x="2" y="48" width="46" height="5" rx="5" />

  <circle class="wall window" cx="0" cy="-25" r="15" />
  <line class="wall" x1="-15" y1="-25" x2="15" y2="-25" />
  <line class="wall" x1="0" y1="-40" x2="0" y2="-10" />
 </svg>
 -->

<!-- gingerbread
<svg
  width="512"
  height="512"
  viewBox="-100 -100 200 200"
>
<style>
.limb {
  stroke: #cd803d;
  stroke-width: 35px;
  stroke-linecap: round;
}
.head {
  fill: #cd803d;
}

.eye {
  fill: white;
}

.mouth {
  fill: none;
  stroke: white;
  stroke-width: 2px;
}

</style>
  <circle class="head" cx="0" cy="-50" r="30"/>
  <circle class="eye" cx="-12" cy="-55" r="3" />
  <circle class="eye" cx="12" cy="-55" r="3" />

  <rect class="mouth" x="-10" y="-40" width="20" height="5" rx="2"/>

  <line class="limb" x1="-40" y1="-10" x2="40" y2="-10"/>
  <line class="limb" x1="-25" y1="50" x2="0" y2="-15"/>
  <line class="limb" x1="25" y1="50" x2="0" y2="-15"/>

  <circle cx="0" cy="-10" r="5"/>
  <circle cx="0" cy="10" r="5"/>
  </svg> -->

<!-- ELKA
<svg width="512" height="512" viewBox="-256 -256 512 512">
  <polygon points="0,0 80,120 -80,120" fill="#234236"/>
  <polygon points="0,-40 60,60 -60,60" fill="#0C5C4C"/>
  <polygon points="0,-80 40,0 -40,0" fill="#38755B"/>
  <rect x="-20" y="120" width="40" height="30" fill="brown"/>
  </svg> -->


<svg width="512" height="512" version="1.1" viewBox="0 0 16.933 16.933" xmlns="http://www.w3.org/2000/svg">
 <defs>
  <linearGradient id="a" x1="49.571" x2="51.714" y1="52.714" y2="54.857" gradientTransform="matrix(2.3333,0,0,2.3333,-68.667,-72.001)" gradientUnits="userSpaceOnUse">
   <stop offset="0"/>
   <stop stop-opacity="0" offset="1"/>
  </linearGradient>
 </defs>
 <g transform="scale(.26458)">
  <rect x="8" y="4" width="48" height="56" ry="5" fill="#f4f4f4" style="paint-order:stroke fill markers"/>
  <path d="m56 46-14 14h9c2.77 0 5-2.23 5-5z" fill="url(#a)" fill-rule="evenodd" opacity=".1" stroke-width="8.8191" style="paint-order:stroke fill markers"/>
 </g>
 <path d="m9.3537 9.5175c0.22643 0.3697 0.52101 0.64145 1.042 0.64145 0.43768 0 0.71728-0.21875 0.71728-0.52101 0-0.36221-0.28727-0.4905-0.76903-0.70122l-0.26408-0.1133c-0.76225-0.32474-1.2686-0.73156-1.2686-1.5916 0-0.79222 0.60363-1.3953 1.547-1.3953 0.67161 0 1.1544 0.23374 1.5024 0.84575l-0.82256 0.52815c-0.1811-0.32474-0.37648-0.45267-0.67981-0.45267-0.3094 0-0.50549 0.19627-0.50549 0.45267 0 0.31689 0.19627 0.44518 0.64948 0.64145l0.26408 0.11312c0.8975 0.38487 1.4042 0.77724 1.4042 1.6594 0 0.95103-0.74708 1.472-1.7504 1.472-0.981 0-1.6148-0.46748-1.9249-1.0802zm-3.7315 0.09153c0.16594 0.29441 0.31689 0.54332 0.67981 0.54332 0.34704 0 0.56598-0.13578 0.56598-0.66375v-3.5918h1.0563v3.606c0 1.0938-0.64127 1.5916-1.5773 1.5916-0.84575 0-1.3355-0.43769-1.5846-0.96485z" enable-background="new" fill="#eab305" stroke-width=".066145"/>
</svg>

